<svg width="341" height="341" viewBox="0 0 341 341" fill="none" xmlns="http://www.w3.org/2000/svg">
<rect width="341" height="341" fill="white"/>
<path d="M309.912 144.762C308.33 142.377 306.087 140.903 303.433 140.531C298.071 139.799 293.011 144.058 292.298 144.672L275.033 159.277L296.368 126.284C297.747 124.672 303.872 117.014 302.723 110.152C302.219 107.141 300.464 104.745 297.639 103.114C288.257 97.6969 280.251 105.74 277.262 110.838L262.645 133.438L272.772 107.666L272.791 107.632C272.917 107.259 274.131 103.991 274.294 99.9817C274.537 93.968 272.239 89.2515 267.766 86.6693C265.177 85.1743 262.412 84.9157 259.798 85.9486C253.578 88.3337 250.337 97.2101 249.581 99.4499L234.56 133.234L237.426 108.933C237.431 108.846 237.436 108.76 237.455 108.727C237.465 108.554 237.68 104.531 236.896 100.376C235.179 91.3128 230.132 89.6477 227.309 89.4895C218.859 88.9814 214.868 97.2914 213.866 102.288L202.74 157.051C200.81 148.667 194.947 130.164 185.112 129.57C180.697 129.295 178.072 131.125 176.626 132.698C171.37 138.538 173.442 150.482 175.647 163.128C176.269 166.787 176.868 170.254 177.275 173.433C179.251 189.425 178.439 200.15 177.368 206.355C176.301 212.785 174.775 215.739 174.654 216.026C174.557 216.193 174.48 216.327 174.417 216.514L166.326 237.129C165.596 238.937 166.366 240.943 168.014 241.894C168.182 241.991 168.35 242.088 168.538 242.152C170.542 242.952 172.771 241.965 173.564 239.97L181.592 219.541C182.746 217.309 188.836 203.655 184.972 172.525C184.542 169.155 183.905 165.443 183.278 161.87C182.323 156.457 181.344 150.852 181.142 146.232C180.846 140.531 181.827 138.6 182.406 137.908C182.574 137.693 183.037 137.202 184.629 137.319C185.288 137.342 187.829 139.077 190.998 146.169C193.396 151.567 195.148 157.93 195.693 161.412C195.992 163.457 195.679 170.367 195.421 174.232C195.267 176.284 196.793 178.146 198.866 178.361C199.039 178.372 217.547 180.718 222.622 207.419C223.022 209.523 225.044 210.913 227.152 210.524C229.259 210.136 230.644 208.125 230.244 206.022C227.091 189.35 219.096 180.676 212.973 176.293C211.037 174.908 209.135 173.855 207.39 173.071L221.419 103.884C221.424 103.797 222.983 96.9818 226.826 97.238C228.73 97.3565 229.934 103.27 229.703 108.175L223.897 157.76C223.667 159.634 224.866 161.441 226.731 161.938C228.577 162.469 230.508 161.532 231.286 159.796L256.756 102.477C256.833 102.344 256.858 102.224 256.901 102.071C257.938 98.8781 260.478 94.012 262.61 93.1918C262.842 93.1022 263.179 92.9845 263.918 93.4117C268.66 96.1492 265.636 104.571 265.529 104.911L241.314 166.656C240.598 168.517 241.363 170.609 243.17 171.519C244.943 172.408 247.114 171.833 248.199 170.185L283.886 114.975C283.925 114.908 283.944 114.874 283.983 114.807C284.002 114.774 285.349 112.519 287.464 110.797C290.437 108.366 292.451 108.993 293.83 109.789C294.805 110.352 295.035 110.886 295.111 111.376C295.567 114.003 292.555 118.909 290.361 121.389C290.231 121.537 290.101 121.684 290.005 121.852L254.317 177.063C253.284 178.696 253.597 180.794 255.019 182.061C256.473 183.347 258.628 183.342 260.088 182.134L297.36 150.582C297.379 150.549 297.379 150.549 297.432 150.535C298.42 149.678 300.983 148.036 302.483 148.233C302.656 148.244 303.017 148.318 303.496 149.041C304.517 150.611 304.309 151.517 303.937 152.238C303.507 153.061 302.794 153.675 302.505 153.865C302.288 154.007 302.143 154.102 301.975 154.317L267.561 187.518C267.228 187.861 266.929 188.224 266.745 188.698C261.087 200.906 244.47 231.94 230.72 240.145C230.138 240.3 229.584 240.56 229.107 240.998C228.5 241.272 227.913 241.513 227.345 241.72C225.203 242.401 223.438 242.274 221.757 241.303C219.907 240.235 217.525 240.867 216.463 242.706C215.401 244.546 216.045 246.925 217.894 247.993C219.744 249.061 221.724 249.669 223.783 249.831L215.228 264.649C214.166 266.488 214.81 268.867 216.66 269.935C218.509 271.003 220.891 270.371 221.953 268.532L234.467 246.858C242.115 242.309 250.64 232.514 259.878 217.601C266.973 206.088 272.2 195.325 273.49 192.547L307.167 160.079C310.794 157.446 314.357 151.431 309.912 144.762Z" fill="black"/>
<path d="M95.5504 248.535L147.646 183.542C148.489 182.489 147.731 180.94 146.372 180.94H38.6285C37.2449 180.94 36.494 182.538 37.3875 183.582L93.0351 248.576C93.6981 249.35 94.913 249.331 95.5504 248.535Z" fill="white" stroke="black" stroke-width="8"/>
<path d="M146.154 177.044L93.4902 151.835C92.5733 151.395 91.5046 151.414 90.6033 151.884L38.7466 178.949C36.4868 180.129 36.4019 183.346 38.5964 184.644L90.3577 215.261C91.3896 215.871 92.6725 215.86 93.6936 215.231L146.452 182.76C148.645 181.411 148.475 178.156 146.154 177.044Z" fill="white" stroke="black" stroke-width="8"/>
<path d="M95.5504 188.355L147.646 123.361C148.489 122.309 147.731 120.759 146.372 120.759H38.6285C37.2449 120.759 36.494 122.358 37.3875 123.401L93.0351 188.395C93.6981 189.17 94.913 189.15 95.5504 188.355Z" fill="white" stroke="black" stroke-width="8"/>
<path d="M146.154 116.058L93.4902 90.3231C92.5733 89.875 91.5046 89.8939 90.6033 90.3741L38.7466 118.003C36.4868 119.207 36.4019 122.491 38.5964 123.816L90.3577 155.071C91.3896 155.694 92.6725 155.682 93.6936 155.041L146.452 121.893C148.645 120.515 148.475 117.192 146.154 116.058Z" fill="white" stroke="black" stroke-width="8"/>
</svg>
