<svg width="326" height="208" viewBox="0 0 326 208" fill="none" xmlns="http://www.w3.org/2000/svg">
<path d="M304.445 0.40625H21.5547C16.0969 0.412437 10.8643 2.58329 7.00506 6.44257C3.14579 10.3018 0.974937 15.5344 0.96875 20.9922V187.008C0.974937 192.466 3.14579 197.698 7.00506 201.557C10.8643 205.417 16.0969 207.588 21.5547 207.594H304.445C309.903 207.588 315.136 205.417 318.995 201.557C322.854 197.698 325.025 192.466 325.031 187.008V20.9922C325.025 15.5344 322.854 10.3018 318.995 6.44257C315.136 2.58329 309.903 0.412437 304.445 0.40625ZM314.406 187.008C314.404 189.649 313.354 192.181 311.486 194.049C309.619 195.916 307.086 196.966 304.445 196.969H21.5547C18.9136 196.966 16.3814 195.916 14.5139 194.049C12.6464 192.181 11.5961 189.649 11.5938 187.008V20.9922C11.5961 18.3511 12.6464 15.8189 14.5139 13.9514C16.3814 12.0839 18.9136 11.0336 21.5547 11.0312H304.445C307.086 11.0336 309.619 12.0839 311.486 13.9514C313.354 15.8189 314.404 18.3511 314.406 20.9922V187.008ZM35.5 181.031C35.5 181.736 35.2201 182.411 34.722 182.91C34.2239 183.408 33.5482 183.688 32.8438 183.688H27.5312C26.8268 183.688 26.1511 183.408 25.653 182.91C25.1549 182.411 24.875 181.736 24.875 181.031V175.719C24.875 175.014 25.1549 174.339 25.653 173.84C26.1511 173.342 26.8268 173.062 27.5312 173.062C28.2357 173.062 28.9114 173.342 29.4095 173.84C29.9076 174.339 30.1875 175.014 30.1875 175.719V178.375H32.8438C33.5482 178.375 34.2239 178.655 34.722 179.153C35.2201 179.651 35.5 180.327 35.5 181.031ZM24.875 57.8944V47.6535C24.875 46.949 25.1549 46.2734 25.653 45.7752C26.1511 45.2771 26.8268 44.9973 27.5312 44.9973C28.2357 44.9973 28.9114 45.2771 29.4095 45.7752C29.9076 46.2734 30.1875 46.949 30.1875 47.6535V57.8944C30.1875 58.5989 29.9076 59.2745 29.4095 59.7727C28.9114 60.2708 28.2357 60.5507 27.5312 60.5507C26.8268 60.5507 26.1511 60.2708 25.653 59.7727C25.1549 59.2745 24.875 58.5989 24.875 57.8944ZM24.875 134.739V124.492C24.875 123.788 25.1549 123.112 25.653 122.614C26.1511 122.116 26.8268 121.836 27.5312 121.836C28.2357 121.836 28.9114 122.116 29.4095 122.614C29.9076 123.112 30.1875 123.788 30.1875 124.492V134.739C30.1875 135.443 29.9076 136.119 29.4095 136.617C28.9114 137.115 28.2357 137.395 27.5312 137.395C26.8268 137.395 26.1511 137.115 25.653 136.617C25.1549 136.119 24.875 135.443 24.875 134.739ZM24.875 109.126V98.8793C24.875 98.1748 25.1549 97.4992 25.653 97.001C26.1511 96.5029 26.8268 96.223 27.5312 96.223C28.2357 96.223 28.9114 96.5029 29.4095 97.001C29.9076 97.4992 30.1875 98.1748 30.1875 98.8793V109.126C30.1875 109.83 29.9076 110.506 29.4095 111.004C28.9114 111.502 28.2357 111.782 27.5312 111.782C26.8268 111.782 26.1511 111.502 25.653 111.004C25.1549 110.506 24.875 109.83 24.875 109.126ZM24.875 83.5129V73.2661C24.875 72.5616 25.1549 71.886 25.653 71.3879C26.1511 70.8897 26.8268 70.6099 27.5312 70.6099C28.2357 70.6099 28.9114 70.8897 29.4095 71.3879C29.9076 71.886 30.1875 72.5616 30.1875 73.2661V83.5129C30.1875 84.2174 29.9076 84.893 29.4095 85.3911C28.9114 85.8893 28.2357 86.1691 27.5312 86.1691C26.8268 86.1691 26.1511 85.8893 25.653 85.3911C25.1549 84.893 24.875 84.2174 24.875 83.5129ZM24.875 160.352V150.106C24.875 149.401 25.1549 148.725 25.653 148.227C26.1511 147.729 26.8268 147.449 27.5312 147.449C28.2357 147.449 28.9114 147.729 29.4095 148.227C29.9076 148.725 30.1875 149.401 30.1875 150.106V160.352C30.1875 161.056 29.9076 161.732 29.4095 162.23C28.9114 162.728 28.2357 163.008 27.5312 163.008C26.8268 163.008 26.1511 162.728 25.653 162.23C25.1549 161.732 24.875 161.056 24.875 160.352ZM35.5 26.9688C35.5 27.6732 35.2201 28.3489 34.722 28.847C34.2239 29.3451 33.5482 29.625 32.8438 29.625H30.1875V32.2812C30.1875 32.9857 29.9076 33.6614 29.4095 34.1595C28.9114 34.6576 28.2357 34.9375 27.5312 34.9375C26.8268 34.9375 26.1511 34.6576 25.653 34.1595C25.1549 33.6614 24.875 32.9857 24.875 32.2812V26.9688C24.875 26.2643 25.1549 25.5886 25.653 25.0905C26.1511 24.5924 26.8268 24.3125 27.5312 24.3125H32.8438C33.5482 24.3125 34.2239 24.5924 34.722 25.0905C35.2201 25.5886 35.5 26.2643 35.5 26.9688ZM100.684 26.9688C100.684 26.2643 100.964 25.5886 101.462 25.0905C101.961 24.5924 102.636 24.3125 103.341 24.3125H114.189C114.893 24.3125 115.569 24.5924 116.067 25.0905C116.565 25.5886 116.845 26.2643 116.845 26.9688C116.845 27.6732 116.565 28.3489 116.067 28.847C115.569 29.3451 114.893 29.625 114.189 29.625H103.341C102.637 29.6243 101.962 29.3441 101.464 28.8461C100.967 28.348 100.687 27.6728 100.687 26.9688H100.684ZM154.92 26.9688C154.92 26.2643 155.2 25.5886 155.698 25.0905C156.196 24.5924 156.871 24.3125 157.576 24.3125H168.419C169.123 24.3125 169.799 24.5924 170.297 25.0905C170.795 25.5886 171.075 26.2643 171.075 26.9688C171.075 27.6732 170.795 28.3489 170.297 28.847C169.799 29.3451 169.123 29.625 168.419 29.625H157.581C156.877 29.625 156.201 29.3451 155.703 28.847C155.205 28.3489 154.925 27.6732 154.925 26.9688H154.92ZM209.15 26.9688C209.15 26.2643 209.43 25.5886 209.928 25.0905C210.426 24.5924 211.101 24.3125 211.806 24.3125H222.659C223.364 24.3125 224.039 24.5924 224.538 25.0905C225.036 25.5886 225.316 26.2643 225.316 26.9688C225.316 27.6732 225.036 28.3489 224.538 28.847C224.039 29.3451 223.364 29.625 222.659 29.625H211.811C211.462 29.6253 211.117 29.5569 210.794 29.4236C210.471 29.2902 210.178 29.0946 209.931 28.8479C209.684 28.6013 209.488 28.3083 209.355 27.9859C209.221 27.6634 209.152 27.3178 209.152 26.9688H209.15ZM182.032 26.9688C182.032 26.2643 182.312 25.5886 182.81 25.0905C183.308 24.5924 183.984 24.3125 184.688 24.3125H195.536C196.241 24.3125 196.917 24.5924 197.415 25.0905C197.913 25.5886 198.193 26.2643 198.193 26.9688C198.193 27.6732 197.913 28.3489 197.415 28.847C196.917 29.3451 196.241 29.625 195.536 29.625H184.691C183.986 29.625 183.311 29.3451 182.813 28.847C182.315 28.3489 182.035 27.6732 182.035 26.9688H182.032ZM127.802 26.9688C127.802 26.2643 128.082 25.5886 128.58 25.0905C129.078 24.5924 129.754 24.3125 130.458 24.3125H141.306C142.011 24.3125 142.687 24.5924 143.185 25.0905C143.683 25.5886 143.963 26.2643 143.963 26.9688C143.963 27.6732 143.683 28.3489 143.185 28.847C142.687 29.3451 142.011 29.625 141.306 29.625H130.461C129.756 29.625 129.081 29.3451 128.583 28.847C128.085 28.3489 127.805 27.6732 127.805 26.9688H127.802ZM46.4544 26.9688C46.4544 26.2643 46.7342 25.5886 47.2324 25.0905C47.7305 24.5924 48.4061 24.3125 49.1106 24.3125H59.9588C60.6632 24.3125 61.3389 24.5924 61.837 25.0905C62.3351 25.5886 62.615 26.2643 62.615 26.9688C62.615 27.6732 62.3351 28.3489 61.837 28.847C61.3389 29.3451 60.6632 29.625 59.9588 29.625H49.1106C48.4066 29.6243 47.7317 29.3441 47.2341 28.8461C46.7365 28.348 46.457 27.6728 46.457 26.9688H46.4544ZM73.572 26.9688C73.572 26.2643 73.8519 25.5886 74.35 25.0905C74.8482 24.5924 75.5238 24.3125 76.2283 24.3125H87.0711C87.7756 24.3125 88.4512 24.5924 88.9493 25.0905C89.4475 25.5886 89.7273 26.2643 89.7273 26.9688C89.7273 27.6732 89.4475 28.3489 88.9493 28.847C88.4512 29.3451 87.7756 29.625 87.0711 29.625H76.2309C75.5265 29.625 74.8508 29.3451 74.3527 28.847C73.8545 28.3489 73.5747 27.6732 73.5747 26.9688H73.572ZM252.423 26.9688C252.423 27.6732 252.143 28.3489 251.645 28.847C251.147 29.3451 250.471 29.625 249.766 29.625H238.926C238.222 29.625 237.546 29.3451 237.048 28.847C236.55 28.3489 236.27 27.6732 236.27 26.9688C236.27 26.2643 236.55 25.5886 237.048 25.0905C237.546 24.5924 238.222 24.3125 238.926 24.3125H249.769C250.474 24.3125 251.149 24.5924 251.647 25.0905C252.145 25.5886 252.425 26.2643 252.425 26.9688H252.423ZM263.38 26.9688C263.38 26.2643 263.66 25.5886 264.158 25.0905C264.656 24.5924 265.331 24.3125 266.036 24.3125H276.884C277.589 24.3125 278.264 24.5924 278.762 25.0905C279.26 25.5886 279.54 26.2643 279.54 26.9688C279.54 27.6732 279.26 28.3489 278.762 28.847C278.264 29.3451 277.589 29.625 276.884 29.625H266.036C265.332 29.6243 264.657 29.3441 264.159 28.8461C263.662 28.348 263.382 27.6728 263.382 26.9688H263.38ZM301.125 26.9688V32.2812C301.125 32.9857 300.845 33.6614 300.347 34.1595C299.849 34.6576 299.173 34.9375 298.469 34.9375C297.764 34.9375 297.089 34.6576 296.59 34.1595C296.092 33.6614 295.812 32.9857 295.812 32.2812V29.625H293.156C292.452 29.625 291.776 29.3451 291.278 28.847C290.78 28.3489 290.5 27.6732 290.5 26.9688C290.5 26.2643 290.78 25.5886 291.278 25.0905C291.776 24.5924 292.452 24.3125 293.156 24.3125H298.469C299.173 24.3125 299.849 24.5924 300.347 25.0905C300.845 25.5886 301.125 26.2643 301.125 26.9688ZM301.125 73.2613V83.5076C301.125 84.212 300.845 84.8877 300.347 85.3858C299.849 85.884 299.173 86.1638 298.469 86.1638C297.764 86.1638 297.089 85.884 296.59 85.3858C296.092 84.8877 295.812 84.212 295.812 83.5076V73.2613C295.812 72.5569 296.092 71.8812 296.59 71.3831C297.089 70.8849 297.764 70.6051 298.469 70.6051C299.173 70.6051 299.849 70.8849 300.347 71.3831C300.845 71.8812 301.125 72.5569 301.125 73.2613ZM301.125 124.487V134.734C301.125 135.438 300.845 136.114 300.347 136.612C299.849 137.11 299.173 137.39 298.469 137.39C297.764 137.39 297.089 137.11 296.59 136.612C296.092 136.114 295.812 135.438 295.812 134.734V124.487C295.812 123.783 296.092 123.107 296.59 122.609C297.089 122.111 297.764 121.831 298.469 121.831C299.173 121.831 299.849 122.111 300.347 122.609C300.845 123.107 301.125 123.783 301.125 124.487ZM301.125 47.6482V57.8944C301.125 58.5989 300.845 59.2745 300.347 59.7727C299.849 60.2708 299.173 60.5507 298.469 60.5507C297.764 60.5507 297.089 60.2708 296.59 59.7727C296.092 59.2745 295.812 58.5989 295.812 57.8944V47.6482C295.812 46.9437 296.092 46.2681 296.59 45.7699C297.089 45.2718 297.764 44.9919 298.469 44.9919C299.173 44.9919 299.849 45.2718 300.347 45.7699C300.845 46.2681 301.125 46.9437 301.125 47.6482ZM301.125 98.8745V109.121C301.125 109.825 300.845 110.501 300.347 110.999C299.849 111.497 299.173 111.777 298.469 111.777C297.764 111.777 297.089 111.497 296.59 110.999C296.092 110.501 295.812 109.825 295.812 109.121V98.8745C295.812 98.17 296.092 97.4944 296.59 96.9962C297.089 96.4981 297.764 96.2183 298.469 96.2183C299.173 96.2183 299.849 96.4981 300.347 96.9962C300.845 97.4944 301.125 98.17 301.125 98.8745ZM301.125 150.106V160.346C301.125 161.051 300.845 161.727 300.347 162.225C299.849 162.723 299.173 163.003 298.469 163.003C297.764 163.003 297.089 162.723 296.59 162.225C296.092 161.727 295.812 161.051 295.812 160.346V150.106C295.812 149.401 296.092 148.725 296.59 148.227C297.089 147.729 297.764 147.449 298.469 147.449C299.173 147.449 299.849 147.729 300.347 148.227C300.845 148.725 301.125 149.401 301.125 150.106ZM301.125 175.719V181.031C301.125 181.736 300.845 182.411 300.347 182.91C299.849 183.408 299.173 183.688 298.469 183.688H293.156C292.452 183.688 291.776 183.408 291.278 182.91C290.78 182.411 290.5 181.736 290.5 181.031C290.5 180.327 290.78 179.651 291.278 179.153C291.776 178.655 292.452 178.375 293.156 178.375H295.812V175.719C295.812 175.014 296.092 174.339 296.59 173.84C297.089 173.342 297.764 173.062 298.469 173.062C299.173 173.062 299.849 173.342 300.347 173.84C300.845 174.339 301.125 175.014 301.125 175.719ZM89.73 181.031C89.73 181.736 89.4501 182.411 88.952 182.91C88.4539 183.408 87.7782 183.688 87.0738 183.688H76.2309C75.5265 183.688 74.8508 183.408 74.3527 182.91C73.8545 182.411 73.5747 181.736 73.5747 181.031C73.5747 180.327 73.8545 179.651 74.3527 179.153C74.8508 178.655 75.5265 178.375 76.2309 178.375H87.0738C87.7782 178.375 88.4539 178.655 88.952 179.153C89.4501 179.651 89.73 180.327 89.73 181.031ZM198.195 181.031C198.195 181.736 197.915 182.411 197.417 182.91C196.919 183.408 196.244 183.688 195.539 183.688H184.691C183.986 183.688 183.311 183.408 182.813 182.91C182.315 182.411 182.035 181.736 182.035 181.031C182.035 180.327 182.315 179.651 182.813 179.153C183.311 178.655 183.986 178.375 184.691 178.375H195.539C196.244 178.375 196.919 178.655 197.417 179.153C197.915 179.651 198.195 180.327 198.195 181.031ZM225.313 181.031C225.313 181.736 225.033 182.411 224.535 182.91C224.037 183.408 223.361 183.688 222.657 183.688H211.809C211.104 183.688 210.428 183.408 209.93 182.91C209.432 182.411 209.152 181.736 209.152 181.031C209.152 180.327 209.432 179.651 209.93 179.153C210.428 178.655 211.104 178.375 211.809 178.375H222.659C223.364 178.375 224.039 178.655 224.538 179.153C225.036 179.651 225.316 180.327 225.316 181.031H225.313ZM252.425 181.031C252.425 181.736 252.145 182.411 251.647 182.91C251.149 183.408 250.474 183.688 249.769 183.688H238.926C238.222 183.688 237.546 183.408 237.048 182.91C236.55 182.411 236.27 181.736 236.27 181.031C236.27 180.327 236.55 179.651 237.048 179.153C237.546 178.655 238.222 178.375 238.926 178.375H249.769C250.474 178.375 251.149 178.655 251.647 179.153C252.145 179.651 252.425 180.327 252.425 181.031ZM62.6177 181.031C62.6177 181.736 62.3378 182.411 61.8397 182.91C61.3415 183.408 60.6659 183.688 59.9614 183.688H49.1133C48.4088 183.688 47.7332 183.408 47.235 182.91C46.7369 182.411 46.457 181.736 46.457 181.031C46.457 180.327 46.7369 179.651 47.235 179.153C47.7332 178.655 48.4088 178.375 49.1133 178.375H59.9614C60.6659 178.375 61.3415 178.655 61.8397 179.153C62.3378 179.651 62.6177 180.327 62.6177 181.031ZM279.543 181.031C279.543 181.736 279.263 182.411 278.765 182.91C278.267 183.408 277.591 183.688 276.887 183.688H266.039C265.334 183.688 264.658 183.408 264.16 182.91C263.662 182.411 263.382 181.736 263.382 181.031C263.382 180.327 263.662 179.651 264.16 179.153C264.658 178.655 265.334 178.375 266.039 178.375H276.887C277.591 178.375 278.267 178.655 278.765 179.153C279.263 179.651 279.543 180.327 279.543 181.031ZM171.078 181.031C171.078 181.736 170.798 182.411 170.3 182.91C169.802 183.408 169.126 183.688 168.421 183.688H157.581C156.877 183.688 156.201 183.408 155.703 182.91C155.205 182.411 154.925 181.736 154.925 181.031C154.925 180.327 155.205 179.651 155.703 179.153C156.201 178.655 156.877 178.375 157.581 178.375H168.424C169.128 178.376 169.803 178.656 170.301 179.154C170.798 179.652 171.078 180.327 171.078 181.031ZM116.848 181.031C116.848 181.736 116.568 182.411 116.07 182.91C115.572 183.408 114.896 183.688 114.191 183.688H103.343C102.639 183.688 101.963 183.408 101.465 182.91C100.967 182.411 100.687 181.736 100.687 181.031C100.687 180.327 100.967 179.651 101.465 179.153C101.963 178.655 102.639 178.375 103.343 178.375H114.191C114.896 178.375 115.572 178.655 116.07 179.153C116.568 179.651 116.848 180.327 116.848 181.031ZM143.965 181.031C143.965 181.736 143.685 182.411 143.187 182.91C142.689 183.408 142.014 183.688 141.309 183.688H130.461C129.756 183.688 129.081 183.408 128.583 182.91C128.085 182.411 127.805 181.736 127.805 181.031C127.805 180.327 128.085 179.651 128.583 179.153C129.081 178.655 129.756 178.375 130.461 178.375H141.309C142.014 178.375 142.689 178.655 143.187 179.153C143.685 179.651 143.965 180.327 143.965 181.031Z" fill="black"/>
<path d="M66 89.4918V59.847H75.8085C78.8675 59.847 81.1687 60.5528 82.7123 61.9645C84.2558 63.3761 85.0276 65.1831 85.0276 67.3852C85.0276 69.1075 84.5645 70.5332 83.6384 71.6626C82.7123 72.7637 81.6739 73.5401 80.5233 73.9918V74.2882C81.8984 74.74 83.1052 75.5587 84.1436 76.7445C85.1819 77.9303 85.7011 79.4549 85.7011 81.3183C85.7011 82.8429 85.3223 84.2263 84.5645 85.4686C83.8349 86.6826 82.7544 87.6566 81.3231 88.3907C79.9199 89.1248 78.1939 89.4918 76.1452 89.4918H66ZM69.5361 72.6366H75.5559C77.4362 72.6366 78.8675 72.2272 79.8497 71.4085C80.86 70.5615 81.3652 69.3474 81.3652 67.7664C81.3652 66.27 80.8741 65.1125 79.8918 64.2937C78.9096 63.475 77.4222 63.0656 75.4296 63.0656H69.5361V72.6366ZM69.5361 86.2309H75.7664C77.787 86.2309 79.3446 85.7791 80.4391 84.8757C81.5336 83.944 82.0808 82.6453 82.0808 80.9795C82.0808 79.3138 81.5055 78.0291 80.3549 77.1257C79.2042 76.194 77.6467 75.7281 75.6822 75.7281H69.5361V86.2309Z" fill="black"/>
<path d="M100.839 64.7596C99.9975 64.7596 99.2959 64.4772 98.7346 63.9126C98.1733 63.3479 97.8926 62.6703 97.8926 61.8798C97.8926 61.061 98.1733 60.3834 98.7346 59.847C99.2959 59.2823 99.9975 59 100.839 59C101.653 59 102.341 59.2823 102.902 59.847C103.491 60.3834 103.786 61.061 103.786 61.8798C103.786 62.6703 103.491 63.3479 102.902 63.9126C102.341 64.4772 101.653 64.7596 100.839 64.7596ZM92.6727 89.4918V86.4426H99.3239V72.5943C99.3239 71.8884 98.9731 71.5355 98.2715 71.5355H93.3883V68.4863H99.1134C101.611 68.4863 102.86 69.7427 102.86 72.2555V86.4426H109.511V89.4918H92.6727Z" fill="black"/>
<path d="M128.522 89.4918C126.614 89.4918 125.113 89.026 124.018 88.0943C122.924 87.1626 122.376 85.4827 122.376 83.0546V71.5355H117.072V68.4863H120.229C121.661 68.4863 122.489 67.7805 122.713 66.3689L123.302 63.1079H125.912V68.4863H134.248V71.5355H125.912V83.0546C125.912 84.2404 126.179 85.0733 126.712 85.5533C127.274 86.0332 128.228 86.2732 129.575 86.2732H134.248V89.4918H128.522Z" fill="black"/>
<path d="M151.785 90C149.4 90 147.337 89.3648 145.597 88.0943C143.885 86.8238 142.566 85.0451 141.64 82.7582C140.742 80.4713 140.293 77.775 140.293 74.6694C140.293 71.592 140.742 68.9098 141.64 66.623C142.566 64.3078 143.885 62.515 145.597 61.2445C147.337 59.974 149.4 59.3388 151.785 59.3388C154.816 59.3388 157.258 60.1858 159.11 61.8798C160.962 63.5455 162.043 65.776 162.351 68.571H158.437C158.156 66.9053 157.454 65.5077 156.332 64.3784C155.209 63.2491 153.694 62.6844 151.785 62.6844C149.344 62.6844 147.421 63.7573 146.018 65.903C144.615 68.0205 143.913 70.9426 143.913 74.6694C143.913 78.4244 144.615 81.3607 146.018 83.4781C147.421 85.5956 149.344 86.6544 151.785 86.6544C153.778 86.6544 155.307 86.1179 156.374 85.0451C157.468 83.9722 158.156 82.5888 158.437 80.8948H162.351C161.902 83.7181 160.78 85.9485 158.984 87.5861C157.216 89.1954 154.816 90 151.785 90Z" fill="black"/>
<path d="M167.344 89.4918V86.4426H174.459V63.1079C174.459 62.4021 174.108 62.0492 173.406 62.0492H168.102V59H174.248C175.455 59 176.381 59.3247 177.027 59.974C177.672 60.6234 177.995 61.5551 177.995 62.7691V86.4426H185.109V89.4918H167.344Z" fill="black"/>
<path d="M202.058 90C200.093 90 198.353 89.5483 196.838 88.6448C195.322 87.7413 194.129 86.4709 193.259 84.8333C192.389 83.1676 191.954 81.2195 191.954 78.9891C191.954 76.7587 192.389 74.8247 193.259 73.1872C194.129 71.5214 195.322 70.2368 196.838 69.3333C198.353 68.4299 200.093 67.9781 202.058 67.9781C204.022 67.9781 205.762 68.4299 207.278 69.3333C208.793 70.2368 209.986 71.5214 210.856 73.1872C211.726 74.8247 212.161 76.7587 212.161 78.9891C212.161 81.2195 211.726 83.1676 210.856 84.8333C209.986 86.4709 208.793 87.7413 207.278 88.6448C205.762 89.5483 204.022 90 202.058 90ZM202.058 86.612C203.264 86.612 204.359 86.3438 205.341 85.8074C206.323 85.2709 207.095 84.4381 207.656 83.3087C208.246 82.1794 208.54 80.7395 208.54 78.9891C208.54 77.2386 208.246 75.7987 207.656 74.6694C207.095 73.5401 206.323 72.7072 205.341 72.1708C204.359 71.6343 203.264 71.3661 202.058 71.3661C200.879 71.3661 199.798 71.6343 198.816 72.1708C197.834 72.7072 197.048 73.5401 196.459 74.6694C195.869 75.7987 195.575 77.2386 195.575 78.9891C195.575 81.6148 196.206 83.5487 197.469 84.791C198.732 86.005 200.261 86.612 202.058 86.612Z" fill="black"/>
<path d="M225.826 90C223.3 90 221.391 89.2377 220.101 87.7131C218.81 86.1885 218.164 83.9863 218.164 81.1066V68.4863H221.7V80.6831C221.7 82.5464 222.107 84.0146 222.921 85.0874C223.763 86.1321 225.026 86.6544 226.71 86.6544C228.394 86.6544 229.811 86.0897 230.961 84.9604C232.112 83.8028 232.687 82.1512 232.687 80.0055V68.4863H236.223V89.4918H233.277L232.898 86.3156H232.687C232.126 87.332 231.242 88.2072 230.035 88.9413C228.829 89.6471 227.425 90 225.826 90Z" fill="black"/>
<path d="M254.729 89.4918C252.821 89.4918 251.32 89.026 250.225 88.0943C249.131 87.1626 248.583 85.4827 248.583 83.0546V71.5355H243.279V68.4863H246.436C247.868 68.4863 248.696 67.7805 248.92 66.3689L249.509 63.1079H252.119V68.4863H260.455V71.5355H252.119V83.0546C252.119 84.2404 252.386 85.0733 252.919 85.5533C253.481 86.0332 254.435 86.2732 255.782 86.2732H260.455V89.4918H254.729Z" fill="black"/>
<path d="M79.5149 148.486L75 118.514H78.5866L81.5825 141.635L85.7598 118.514H89.3886L93.5659 141.635L96.5618 118.514H100.148L95.6335 148.486H91.5827L87.5742 125.45L83.5656 148.486H79.5149Z" fill="black"/>
<path d="M103.845 148.486V118.514H122.284V121.768H107.389V131.744H121.019V134.999H107.389V145.232H122.284V148.486H103.845Z" fill="black"/>
<path d="M129.188 148.486V118.514H132.732V145.232H147.712V148.486H129.188Z" fill="black"/>
<path d="M163.687 149C161.296 149 159.229 148.358 157.485 147.073C155.769 145.789 154.446 143.99 153.518 141.678C152.618 139.366 152.168 136.64 152.168 133.5C152.168 130.389 152.618 127.677 153.518 125.365C154.446 123.024 155.769 121.211 157.485 119.927C159.229 118.642 161.296 118 163.687 118C166.725 118 169.173 118.856 171.029 120.569C172.886 122.253 173.969 124.508 174.278 127.334H170.354C170.073 125.65 169.37 124.237 168.244 123.095C167.119 121.953 165.6 121.383 163.687 121.383C161.24 121.383 159.313 122.467 157.906 124.637C156.5 126.778 155.797 129.732 155.797 133.5C155.797 137.297 156.5 140.265 157.906 142.406C159.313 144.547 161.24 145.617 163.687 145.617C165.684 145.617 167.218 145.075 168.287 143.99C169.384 142.906 170.073 141.507 170.354 139.794H174.278C173.828 142.649 172.703 144.904 170.903 146.559C169.13 148.186 166.725 149 163.687 149Z" fill="black"/>
<path d="M188.777 149C186.386 149 184.332 148.358 182.616 147.073C180.9 145.789 179.578 143.99 178.65 141.678C177.75 139.337 177.3 136.611 177.3 133.5C177.3 130.389 177.75 127.677 178.65 125.365C179.578 123.024 180.9 121.211 182.616 119.927C184.332 118.642 186.386 118 188.777 118C191.168 118 193.222 118.642 194.937 119.927C196.653 121.211 197.961 123.024 198.862 125.365C199.79 127.677 200.254 130.389 200.254 133.5C200.254 136.611 199.79 139.337 198.862 141.678C197.961 143.99 196.653 145.789 194.937 147.073C193.222 148.358 191.168 149 188.777 149ZM188.777 145.617C191.112 145.617 192.996 144.561 194.431 142.449C195.894 140.337 196.625 137.354 196.625 133.5C196.625 129.646 195.894 126.663 194.431 124.551C192.996 122.439 191.112 121.383 188.777 121.383C186.414 121.383 184.515 122.439 183.081 124.551C181.646 126.663 180.929 129.646 180.929 133.5C180.929 137.354 181.646 140.337 183.081 142.449C184.515 144.561 186.414 145.617 188.777 145.617Z" fill="black"/>
<path d="M203.529 148.486V118.514H207.326L214.078 132.772L220.829 118.514H224.626V148.486H221.166V125.45L215.428 137.568H212.727L206.989 125.493V148.486H203.529Z" fill="black"/>
<path d="M230.349 148.486V118.514H248.788V121.768H233.893V131.744H247.522V134.999H233.893V145.232H248.788V148.486H230.349Z" fill="black"/>
</svg>
